<svg id="visual" viewBox="0 0 800 400" width="800" height="400" xmlns="http://www.w3.org/2000/svg" xmlns:xlink="http://www.w3.org/1999/xlink" version="1.1"><rect x="0" y="0" width="800" height="400" fill="#e6eaec"></rect><defs><linearGradient id="grad1_0" x1="50%" y1="0%" x2="100%" y2="100%"><stop offset="10%" stop-color="#fbae3c" stop-opacity="1"></stop><stop offset="90%" stop-color="#fbae3c" stop-opacity="1"></stop></linearGradient></defs><defs><linearGradient id="grad1_1" x1="50%" y1="0%" x2="100%" y2="100%"><stop offset="10%" stop-color="#fbae3c" stop-opacity="1"></stop><stop offset="90%" stop-color="#d7c551" stop-opacity="1"></stop></linearGradient></defs><defs><linearGradient id="grad1_2" x1="50%" y1="0%" x2="100%" y2="100%"><stop offset="10%" stop-color="#b6d577" stop-opacity="1"></stop><stop offset="90%" stop-color="#d7c551" stop-opacity="1"></stop></linearGradient></defs><defs><linearGradient id="grad1_3" x1="50%" y1="0%" x2="100%" y2="100%"><stop offset="10%" stop-color="#b6d577" stop-opacity="1"></stop><stop offset="90%" stop-color="#9fe0a2" stop-opacity="1"></stop></linearGradient></defs><defs><linearGradient id="grad1_4" x1="50%" y1="0%" x2="100%" y2="100%"><stop offset="10%" stop-color="#9ae6c8" stop-opacity="1"></stop><stop offset="90%" stop-color="#9fe0a2" stop-opacity="1"></stop></linearGradient></defs><defs><linearGradient id="grad1_5" x1="50%" y1="0%" x2="100%" y2="100%"><stop offset="10%" stop-color="#9ae6c8" stop-opacity="1"></stop><stop offset="90%" stop-color="#aae8e3" stop-opacity="1"></stop></linearGradient></defs><defs><linearGradient id="grad1_6" x1="50%" y1="0%" x2="100%" y2="100%"><stop offset="10%" stop-color="#c8e9ee" stop-opacity="1"></stop><stop offset="90%" stop-color="#aae8e3" stop-opacity="1"></stop></linearGradient></defs><defs><linearGradient id="grad1_7" x1="50%" y1="0%" x2="100%" y2="100%"><stop offset="10%" stop-color="#c8e9ee" stop-opacity="1"></stop><stop offset="90%" stop-color="#e6eaec" stop-opacity="1"></stop></linearGradient></defs><defs><linearGradient id="grad2_0" x1="0%" y1="0%" x2="50%" y2="100%"><stop offset="10%" stop-color="#fbae3c" stop-opacity="1"></stop><stop offset="90%" stop-color="#fbae3c" stop-opacity="1"></stop></linearGradient></defs><defs><linearGradient id="grad2_1" x1="0%" y1="0%" x2="50%" y2="100%"><stop offset="10%" stop-color="#d7c551" stop-opacity="1"></stop><stop offset="90%" stop-color="#fbae3c" stop-opacity="1"></stop></linearGradient></defs><defs><linearGradient id="grad2_2" x1="0%" y1="0%" x2="50%" y2="100%"><stop offset="10%" stop-color="#d7c551" stop-opacity="1"></stop><stop offset="90%" stop-color="#b6d577" stop-opacity="1"></stop></linearGradient></defs><defs><linearGradient id="grad2_3" x1="0%" y1="0%" x2="50%" y2="100%"><stop offset="10%" stop-color="#9fe0a2" stop-opacity="1"></stop><stop offset="90%" stop-color="#b6d577" stop-opacity="1"></stop></linearGradient></defs><defs><linearGradient id="grad2_4" x1="0%" y1="0%" x2="50%" y2="100%"><stop offset="10%" stop-color="#9fe0a2" stop-opacity="1"></stop><stop offset="90%" stop-color="#9ae6c8" stop-opacity="1"></stop></linearGradient></defs><defs><linearGradient id="grad2_5" x1="0%" y1="0%" x2="50%" y2="100%"><stop offset="10%" stop-color="#aae8e3" stop-opacity="1"></stop><stop offset="90%" stop-color="#9ae6c8" stop-opacity="1"></stop></linearGradient></defs><defs><linearGradient id="grad2_6" x1="0%" y1="0%" x2="50%" y2="100%"><stop offset="10%" stop-color="#aae8e3" stop-opacity="1"></stop><stop offset="90%" stop-color="#c8e9ee" stop-opacity="1"></stop></linearGradient></defs><defs><linearGradient id="grad2_7" x1="0%" y1="0%" x2="50%" y2="100%"><stop offset="10%" stop-color="#e6eaec" stop-opacity="1"></stop><stop offset="90%" stop-color="#c8e9ee" stop-opacity="1"></stop></linearGradient></defs><g transform="translate(800, 0)"><path d="M0 200C-26.4 197.7 -52.7 195.4 -76.5 184.8C-100.3 174.1 -121.6 155.1 -133.6 133.6C-145.7 112.1 -148.5 88.1 -158 65.4C-167.5 42.7 -183.8 21.4 -200 0L0 0Z" fill="#d8e9ef"></path><path d="M0 175C-23.1 173 -46.1 171 -67 161.7C-87.8 152.4 -106.4 135.8 -116.9 116.9C-127.5 98.1 -129.9 77.1 -138.2 57.3C-146.6 37.4 -160.8 18.7 -175 0L0 0Z" fill="#b9e9ea"></path><path d="M0 150C-19.8 148.3 -39.5 146.6 -57.4 138.6C-75.3 130.6 -91.2 116.4 -100.2 100.2C-109.3 84.1 -111.3 66.1 -118.5 49.1C-125.6 32.1 -137.8 16 -150 0L0 0Z" fill="#a0e7d7"></path><path d="M0 125C-16.5 123.6 -33 122.1 -47.8 115.5C-62.7 108.8 -76 97 -83.5 83.5C-91 70.1 -92.8 55.1 -98.7 40.9C-104.7 26.7 -114.8 13.4 -125 0L0 0Z" fill="#9ae3b6"></path><path d="M0 100C-13.2 98.9 -26.4 97.7 -38.3 92.4C-50.2 87.1 -60.8 77.6 -66.8 66.8C-72.8 56.1 -74.2 44.1 -79 32.7C-83.8 21.4 -91.9 10.7 -100 0L0 0Z" fill="#a9db8d"></path><path d="M0 75C-9.9 74.1 -19.8 73.3 -28.7 69.3C-37.6 65.3 -45.6 58.2 -50.1 50.1C-54.6 42.1 -55.7 33 -59.2 24.5C-62.8 16 -68.9 8 -75 0L0 0Z" fill="#c6ce63"></path><path d="M0 50C-6.6 49.4 -13.2 48.9 -19.1 46.2C-25.1 43.5 -30.4 38.8 -33.4 33.4C-36.4 28 -37.1 22 -39.5 16.4C-41.9 10.7 -45.9 5.3 -50 0L0 0Z" fill="#e9ba43"></path><path d="M0 25C-3.3 24.7 -6.6 24.4 -9.6 23.1C-12.5 21.8 -15.2 19.4 -16.7 16.7C-18.2 14 -18.6 11 -19.7 8.2C-20.9 5.3 -23 2.7 -25 0L0 0Z" fill="#fbae3c"></path></g><g transform="translate(0, 400)"><path d="M0 -200C29.3 -200.4 58.7 -200.7 76.5 -184.8C94.4 -168.8 100.7 -136.5 116.7 -116.7C132.6 -96.8 158.2 -89.3 173.7 -71.9C189.2 -54.6 194.6 -27.3 200 0L0 0Z" fill="#d8e9ef"></path><path d="M0 -175C25.7 -175.3 51.4 -175.6 67 -161.7C82.6 -147.7 88.1 -119.5 102.1 -102.1C116 -84.7 138.4 -78.2 152 -63C165.5 -47.7 170.3 -23.9 175 0L0 0Z" fill="#b9e9ea"></path><path d="M0 -150C22 -150.3 44 -150.5 57.4 -138.6C70.8 -126.6 75.5 -102.4 87.5 -87.5C99.5 -72.6 118.6 -67 130.3 -54C141.9 -40.9 145.9 -20.5 150 0L0 0Z" fill="#a0e7d7"></path><path d="M0 -125C18.3 -125.2 36.7 -125.5 47.8 -115.5C59 -105.5 62.9 -85.3 72.9 -72.9C82.9 -60.5 98.9 -55.8 108.6 -45C118.2 -34.1 121.6 -17.1 125 0L0 0Z" fill="#9ae3b6"></path><path d="M0 -100C14.7 -100.2 29.3 -100.4 38.3 -92.4C47.2 -84.4 50.4 -68.3 58.3 -58.3C66.3 -48.4 79.1 -44.7 86.8 -36C94.6 -27.3 97.3 -13.6 100 0L0 0Z" fill="#a9db8d"></path><path d="M0 -75C11 -75.1 22 -75.3 28.7 -69.3C35.4 -63.3 37.8 -51.2 43.8 -43.8C49.7 -36.3 59.3 -33.5 65.1 -27C70.9 -20.5 73 -10.2 75 0L0 0Z" fill="#c6ce63"></path><path d="M0 -50C7.3 -50.1 14.7 -50.2 19.1 -46.2C23.6 -42.2 25.2 -34.1 29.2 -29.2C33.2 -24.2 39.5 -22.3 43.4 -18C47.3 -13.6 48.6 -6.8 50 0L0 0Z" fill="#e9ba43"></path><path d="M0 -25C3.7 -25 7.3 -25.1 9.6 -23.1C11.8 -21.1 12.6 -17.1 14.6 -14.6C16.6 -12.1 19.8 -11.2 21.7 -9C23.6 -6.8 24.3 -3.4 25 0L0 0Z" fill="#fbae3c"></path></g></svg>