<svg id="visual" viewBox="0 0 800 500" width="800" height="500" xmlns="http://www.w3.org/2000/svg" xmlns:xlink="http://www.w3.org/1999/xlink" version="1.1"><rect x="0" y="0" width="800" height="500" fill="#e6eaec"></rect><defs><linearGradient id="grad1_0" x1="37.5%" y1="0%" x2="100%" y2="100%"><stop offset="17.999999999999996%" stop-color="#fbae3c" stop-opacity="1"></stop><stop offset="82%" stop-color="#fbae3c" stop-opacity="1"></stop></linearGradient></defs><defs><linearGradient id="grad1_1" x1="37.5%" y1="0%" x2="100%" y2="100%"><stop offset="17.999999999999996%" stop-color="#fbae3c" stop-opacity="1"></stop><stop offset="82%" stop-color="#9ae3b6" stop-opacity="1"></stop></linearGradient></defs><defs><linearGradient id="grad1_2" x1="37.5%" y1="0%" x2="100%" y2="100%"><stop offset="17.999999999999996%" stop-color="#e6eaec" stop-opacity="1"></stop><stop offset="82%" stop-color="#9ae3b6" stop-opacity="1"></stop></linearGradient></defs><defs><linearGradient id="grad2_0" x1="0%" y1="0%" x2="62.5%" y2="100%"><stop offset="17.999999999999996%" stop-color="#fbae3c" stop-opacity="1"></stop><stop offset="82%" stop-color="#fbae3c" stop-opacity="1"></stop></linearGradient></defs><defs><linearGradient id="grad2_1" x1="0%" y1="0%" x2="62.5%" y2="100%"><stop offset="17.999999999999996%" stop-color="#9ae3b6" stop-opacity="1"></stop><stop offset="82%" stop-color="#fbae3c" stop-opacity="1"></stop></linearGradient></defs><defs><linearGradient id="grad2_2" x1="0%" y1="0%" x2="62.5%" y2="100%"><stop offset="17.999999999999996%" stop-color="#9ae3b6" stop-opacity="1"></stop><stop offset="82%" stop-color="#e6eaec" stop-opacity="1"></stop></linearGradient></defs><g transform="translate(800, 0)"><path d="M0 235.8C-22.6 213 -45.3 190.1 -75.4 182C-105.5 173.9 -143 180.7 -166.8 166.8C-190.5 152.8 -200.5 118.1 -209.7 86.9C-218.9 55.6 -227.4 27.8 -235.8 0L0 0Z" fill="#b1e9e7"></path><path d="M0 157.2C-15.1 142 -30.2 126.7 -50.3 121.3C-70.3 116 -95.3 120.5 -111.2 111.2C-127 101.9 -133.7 78.7 -139.8 57.9C-146 37.1 -151.6 18.5 -157.2 0L0 0Z" fill="#bed26d"></path><path d="M0 78.6C-7.5 71 -15.1 63.4 -25.1 60.7C-35.2 58 -47.7 60.2 -55.6 55.6C-63.5 50.9 -66.8 39.4 -69.9 29C-73 18.5 -75.8 9.3 -78.6 0L0 0Z" fill="#fbae3c"></path></g><g transform="translate(0, 500)"><path d="M0 -235.8C22.9 -211.6 45.8 -187.3 73.5 -177.4C101.1 -167.4 133.5 -171.8 159.8 -159.8C186.1 -147.9 206.2 -119.6 217.9 -90.3C229.6 -60.9 232.7 -30.5 235.8 0L0 0Z" fill="#b1e9e7"></path><path d="M0 -157.2C15.3 -141.1 30.5 -124.9 49 -118.3C67.4 -111.6 89 -114.5 106.5 -106.5C124.1 -98.6 137.5 -79.7 145.3 -60.2C153 -40.6 155.1 -20.3 157.2 0L0 0Z" fill="#bed26d"></path><path d="M0 -78.6C7.6 -70.5 15.3 -62.4 24.5 -59.1C33.7 -55.8 44.5 -57.3 53.3 -53.3C62 -49.3 68.7 -39.9 72.6 -30.1C76.5 -20.3 77.6 -10.2 78.6 0L0 0Z" fill="#fbae3c"></path></g></svg>